<svg xmlns="http://www.w3.org/2000/svg" width="543.497" height="415" viewBox="0 0 543.497 415">
  <g id="Grupo_79" data-name="Grupo 79" transform="translate(-207.978 -1514)">
    <g id="Plant_Tomatoes" data-name="Plant Tomatoes" transform="translate(267.781 1514.112)">
      <g id="Filled" transform="translate(9.654 1.884)">
        <path id="Trazado_307" data-name="Trazado 307" d="M77.39,212.858c0,7.1-6.579,11.021-14.7,11.021S48,219.96,48,212.858,54.579,200,62.7,200,77.39,205.757,77.39,212.858Z" transform="translate(-46.632 -155.915)" fill="#e16162"/>
        <path id="Trazado_308" data-name="Trazado 308" d="M336.877,260.84c-2.171,4.584-.563,9.9,7.689,13.8s22.192.349,22.192.349-6.078-13.042-14.329-16.95S339.049,256.256,336.877,260.84Z" transform="translate(-268.504 -199.057)" fill="#004643"/>
        <path id="Trazado_309" data-name="Trazado 309" d="M361.211,288.521a20.233,20.233,0,0,1-24.99-3.177c-.946,4.1,1.219,8.528,8.353,11.907,8.251,3.908,22.192.349,22.192.349A56.277,56.277,0,0,0,361.211,288.521Z" transform="translate(-268.513 -221.663)" fill="#004643"/>
        <path id="Trazado_310" data-name="Trazado 310" d="M336,85.91c0,7.1,6.579,11.021,14.7,11.021s14.7-3.92,14.7-11.021-6.579-12.858-14.7-12.858S336,78.809,336,85.91Z" transform="translate(-268.504 -58.116)" fill="#e16162"/>
        <path id="Trazado_311" data-name="Trazado 311" d="M337.321,40.336c-2.327-4.912-.75-10.534,7.732-14.552s22.983,0,22.983,0-6.076,13.767-14.557,17.785S339.648,45.248,337.321,40.336Z" transform="translate(-268.773 -20.326)" fill="#004643"/>
        <path id="Trazado_312" data-name="Trazado 312" d="M368.053,27.832a54.884,54.884,0,0,0-5.781-1.179,25.225,25.225,0,0,1-25.9,11.841,9.613,9.613,0,0,0,.967,3.886c2.327,4.912,7.676,7.253,16.157,3.236S368.053,27.832,368.053,27.832Z" transform="translate(-268.79 -22.37)" fill="#004643"/>
        <ellipse id="Elipse_21" data-name="Elipse 21" cx="3.5" cy="4" rx="3.5" ry="4" transform="translate(79.041 3.004)" fill="#abd1c6"/>
        <circle id="Elipse_22" data-name="Elipse 22" cx="2" cy="2" r="2" transform="translate(71.041 9.004)" fill="#abd1c6"/>
        <path id="Trazado_313" data-name="Trazado 313" d="M71.924,12.84c2.171,4.584.563,9.9-7.689,13.8s-22.192.349-22.192.349,6.078-13.042,14.329-16.95S69.753,8.256,71.924,12.84Z" transform="translate(-42.043 -8.001)" fill="#004643"/>
        <path id="Trazado_314" data-name="Trazado 314" d="M104.374,12.841c-2.106-4.446-7-6.574-14.816-3.132a17.051,17.051,0,0,1-5.394,18.7c4.161.232,8.891-.042,12.521-1.761C104.937,22.737,106.545,17.425,104.374,12.841Z" transform="translate(-74.493 -8.002)" fill="#004643"/>
        <path id="Trazado_315" data-name="Trazado 315" d="M180.738,427.674c-.419,0-.832.023-1.242.056a14.685,14.685,0,0,0-19.559,0c-.41-.033-.823-.056-1.242-.056a14.7,14.7,0,0,0-14.7,14.7h51.433A14.7,14.7,0,0,0,180.738,427.674Z" transform="translate(-120.589 -328.482)" fill="#a1887f"/>
        <path id="Trazado_316" data-name="Trazado 316" d="M116.634,33.906c3.964,3.165,4.851,8.644-.847,15.779S96,59.741,96,59.741s-.265-14.385,5.432-21.521S112.671,30.74,116.634,33.906Z" transform="translate(-83.611 -26.488)" fill="#004643"/>
        <path id="Trazado_317" data-name="Trazado 317" d="M315.4,281.907c-3.964,3.165-4.851,8.644.847,15.779s19.786,10.057,19.786,10.057.265-14.386-5.432-21.52S319.361,278.741,315.4,281.907Z" transform="translate(-250.167 -217.545)" fill="#004643"/>
        <path id="Trazado_318" data-name="Trazado 318" d="M125.39,244.858c0,7.1-6.579,11.021-14.7,11.021S96,251.96,96,244.858,102.579,232,110.7,232,125.39,237.757,125.39,244.858Z" transform="translate(-83.611 -180.567)" fill="#e16162"/>
        <path id="Trazado_319" data-name="Trazado 319" d="M288,117.91c0,7.1,6.579,11.021,14.7,11.021s14.7-3.92,14.7-11.021-6.579-12.858-14.7-12.858S288,110.809,288,117.91Z" transform="translate(-231.525 -82.768)" fill="#e16162"/>
        <path id="Trazado_320" data-name="Trazado 320" d="M119.771,63.614a26.828,26.828,0,0,1-23.258,12.94,55.651,55.651,0,0,0-.505,7.545s14.088-2.923,19.786-10.057C119.028,69.992,120.138,66.477,119.771,63.614Z" transform="translate(-83.617 -50.845)" fill="#004643"/>
        <path id="Trazado_321" data-name="Trazado 321" d="M128.191,249.429a13.119,13.119,0,0,1,.373,3.1c0,7.692-6.644,12.858-16.532,12.858a23.161,23.161,0,0,1-7.143-1.053c2.558,3.239,7.266,4.969,12.654,4.969,8.116,0,14.7-3.92,14.7-11.021A12.016,12.016,0,0,0,128.191,249.429Z" transform="translate(-90.459 -193.994)" fill="#de513e"/>
        <path id="Trazado_322" data-name="Trazado 322" d="M320.945,344.213a24.873,24.873,0,0,0,2.038,2.942c5.7,7.135,19.786,10.057,19.786,10.057a56.241,56.241,0,0,0-1.046-10.8A23.877,23.877,0,0,1,320.945,344.213Z" transform="translate(-256.906 -267.015)" fill="#004643"/>
        <ellipse id="Elipse_23" data-name="Elipse 23" cx="3.5" cy="4" rx="3.5" ry="4" transform="translate(14.041 58.004)" fill="#f27c6d"/>
        <circle id="Elipse_24" data-name="Elipse 24" cx="1.5" cy="1.5" r="1.5" transform="translate(24.041 64.004)" fill="#f27c6d"/>
        <g id="Grupo_57" data-name="Grupo 57" transform="translate(17.893 6.985)">
          <circle id="Elipse_25" data-name="Elipse 25" cx="3.5" cy="3.5" r="3.5" transform="translate(48.148 58.019)" fill="#abd1c6"/>
          <circle id="Elipse_26" data-name="Elipse 26" cx="2" cy="2" r="2" transform="translate(57.148 63.019)" fill="#abd1c6"/>
          <circle id="Elipse_27" data-name="Elipse 27" cx="4" cy="4" r="4" transform="translate(3.148 0.019)" fill="#abd1c6"/>
          <path id="Trazado_336" data-name="Trazado 336" d="M1.5,0C2.328,0,3,.9,3,2S2.328,4,1.5,4,0,3.1,0,2,.672,0,1.5,0Z" transform="translate(0.148 8.019)" fill="#abd1c6"/>
        </g>
        <path id="Trazado_323" data-name="Trazado 323" d="M250.554,432.757c-.419,0-.832.023-1.242.056a14.737,14.737,0,0,0-3.279-2.215,29.418,29.418,0,0,1-11.408,16.854H265.25A14.7,14.7,0,0,0,250.554,432.757Z" transform="translate(-190.406 -333.565)" fill="#9c7b70"/>
        <path id="Trazado_324" data-name="Trazado 324" d="M320.191,122.481a13.118,13.118,0,0,1,.373,3.1c0,7.692-6.644,12.858-16.532,12.858a23.168,23.168,0,0,1-7.143-1.053c2.558,3.239,7.266,4.969,12.654,4.969,8.116,0,14.7-3.92,14.7-11.021A12.017,12.017,0,0,0,320.191,122.481Z" transform="translate(-238.373 -96.195)" fill="#de513e"/>
        <circle id="Elipse_29" data-name="Elipse 29" cx="4" cy="4" r="4" transform="translate(58.041 29.004)" fill="#f27c6d"/>
        <circle id="Elipse_30" data-name="Elipse 30" cx="2" cy="2" r="2" transform="translate(67.041 35.004)" fill="#f27c6d"/>
      </g>
      <g id="Outline" transform="translate(0 0.171)">
        <path id="Trazado_325" data-name="Trazado 325" d="M115.725,132.3H86.23a16.552,16.552,0,0,0-17.045-14.682,16.5,16.5,0,0,0-8.567-3.581V87.167c3.342-3.015,7.772-5.017,11.554-2.473C67.854,89.771,70.1,96.283,74.3,101.54c5.59,7,19.7,10.748,21.221,10.748a1.837,1.837,0,0,0,1.837-1.8c.011-.614.208-15.135-5.834-22.7-4.386-5.493-10.487-9.06-16.459-5.519-4.419-3.561-9.661-2.918-14.443.262,0-18.043,0-19.7,0-36.558,0-5.1,9.1-14.676,17.088-5-7.63,1.3-13.414,7.274-13.414,14.43,0,9.358,9.381,13.607,18.807,12.759a1.837,1.837,0,1,0-.329-3.659c-3.735.336-8.2-.265-11.281-2.429-6.67-4.684-3.49-15.027,5.861-17.28l-3.505,4.674a1.837,1.837,0,0,0,2.939,2.2l2.2-2.939V52.4a1.837,1.837,0,0,0,3.674,0V48.725c1.9,2.234,2.179,3.674,3.675,3.674A1.839,1.839,0,0,0,87.8,49.459L84.3,44.786c7.292,1.757,10.777,8.337,8.9,13.461a1.837,1.837,0,1,0,3.449,1.264c3.008-8.21-3.564-18.039-14.59-18.766-4.822-7.982-14.3-10.759-21.439-3.027V27.6a1.837,1.837,0,0,0-3.674,0V33.89A15.959,15.959,0,0,0,43.2,25.77c-6.056-4.221-12.512-.743-17.155,5.07C20,38.406,20.2,52.926,20.208,53.541a1.837,1.837,0,0,0,2.21,1.765c.6-.125,14.806-3.145,20.849-10.71,3.39-4.244,5.823-9.593,3.6-14.523,8.106,2.658,10.076,12.943,10.076,16.886v8.331c-7.922,1.105-18.47,8.814-21.432,14.6-20.2,1.324-21.7,29.574,3.432,27.416a1.837,1.837,0,0,0-.314-3.66c-18.221,1.564-18.774-15.841-6-19.545l-2.87,3.828a1.837,1.837,0,0,0,2.939,2.2L34.9,77.2V80.87a1.837,1.837,0,0,0,3.674,0V77.2l2.2,2.939a1.837,1.837,0,1,0,2.939-2.2L40.848,74.1c7.033,2.039,10.126,8.559,8.21,13.434a1.837,1.837,0,1,0,3.419,1.344C55.49,81.217,49.952,71.746,39.7,70.09c3.169-4.289,11.133-10.049,17.244-11.1V114.04a16.5,16.5,0,0,0-8.567,3.582A16.551,16.551,0,0,0,31.333,132.3H1.837a1.837,1.837,0,0,0,0,3.674H115.725a1.837,1.837,0,1,0,0-3.674ZM76.03,86.05c4.391-3.506,9.108-.37,12.619,4.027,3.9,4.889,4.784,13.792,4.978,18.008-4.069-1.122-12.557-3.949-16.461-8.838-3.511-4.4-5.527-9.69-1.136-13.2ZM40.394,42.3c-3.9,4.889-12.392,7.715-16.461,8.838.194-4.216,1.074-13.119,4.978-18.008,3.527-4.417,8.241-7.523,12.619-4.027,4.4,3.511,2.368,8.81-1.135,13.2Zm-5.36,90a12.866,12.866,0,0,1,13.813-10.972,1.83,1.83,0,0,0,1.378-.459,12.849,12.849,0,0,1,17.113,0c.752.672,1.418.41,2.464.41A12.876,12.876,0,0,1,82.527,132.3Z" transform="translate(0 -18.539)" fill="#001e1d"/>
        <path id="Trazado_326" data-name="Trazado 326" d="M287.348,464h-5.511a1.837,1.837,0,0,0,0,3.674h5.511a1.837,1.837,0,0,0,0-3.674Z" transform="translate(-215.709 -357.584)" fill="#001e1d"/>
        <path id="Trazado_327" data-name="Trazado 327" d="M199.348,464h-5.511a1.837,1.837,0,1,0,0,3.674h5.511a1.837,1.837,0,0,0,0-3.674Z" transform="translate(-147.915 -357.584)" fill="#001e1d"/>
        <path id="Trazado_328" data-name="Trazado 328" d="M60.974,196.393a1.837,1.837,0,1,0,1.115-3.5C51.925,189.657,40,196.1,40,206.736a11.385,11.385,0,0,0,4.361,9.133,1.837,1.837,0,0,0,2.308-2.858,7.723,7.723,0,0,1-3-6.274C43.669,198.7,53.119,193.892,60.974,196.393Z" transform="translate(-30.811 -148.079)" fill="#001e1d"/>
        <path id="Trazado_329" data-name="Trazado 329" d="M440.663,115.076a1.837,1.837,0,1,0,2.306,2.86,11.973,11.973,0,0,0,3.432-14,1.837,1.837,0,0,0-3.418,1.348A8.3,8.3,0,0,1,440.663,115.076Z" transform="translate(-338.954 -79.295)" fill="#001e1d"/>
        <path id="Trazado_330" data-name="Trazado 330" d="M35.423,23.113A55.53,55.53,0,0,0,42.3,24.3a1.838,1.838,0,0,0,.213-3.661c-1.515-.178-2.86-.4-3.906-.6C49.716-.288,58.587,6.984,57.867,2.216A1.837,1.837,0,0,0,55.778.674a23.086,23.086,0,0,0-6.356,2.05C40.67,6.867,34.471,20,34.212,20.557a1.837,1.837,0,0,0,1.211,2.556Z" transform="translate(-26.224 -0.627)" fill="#001e1d"/>
        <path id="Trazado_331" data-name="Trazado 331" d="M338.257,25.878a1.837,1.837,0,0,0,2.582-.281,16.667,16.667,0,0,1,5.94-4.315c5.9-2.8,15.319-1.291,19.538-.4-1.7,3.279-5.46,9.786-10.236,13.361a1.837,1.837,0,1,0,2.2,2.941c7.309-5.472,12.171-16.359,12.374-16.82a1.837,1.837,0,0,0-1.19-2.512c-.62-.172-15.264-4.154-24.261.106a20.226,20.226,0,0,0-7.23,5.333,1.837,1.837,0,0,0,.281,2.582Z" transform="translate(-260.06 -12.451)" fill="#001e1d"/>
        <path id="Trazado_332" data-name="Trazado 332" d="M387.8,270.675a1.837,1.837,0,0,0,2.039,1.61,56.1,56.1,0,0,0,6.664-1.171,1.837,1.837,0,0,0,1.211-2.556c-.259-.557-6.458-13.69-15.208-17.834a23.083,23.083,0,0,0-6.357-2.051,1.837,1.837,0,0,0-2.089,1.543c-.712,4.718,8.194-2.4,19.255,17.824-1.046.2-2.39.419-3.9.6A1.837,1.837,0,0,0,387.8,270.675Z" transform="translate(-288.14 -191.682)" fill="#001e1d"/>
        <ellipse id="Elipse_31" data-name="Elipse 31" cx="1.5" cy="2" rx="1.5" ry="2" transform="translate(57.694 -0.282)" fill="#001e1d"/>
        <circle id="Elipse_32" data-name="Elipse 32" cx="1.5" cy="1.5" r="1.5" transform="translate(88.694 44.718)" fill="#001e1d"/>
        <ellipse id="Elipse_33" data-name="Elipse 33" cx="1.5" cy="2" rx="1.5" ry="2" transform="translate(44.694 72.718)" fill="#001e1d"/>
      </g>
    </g>
    <g id="Grupo_59" data-name="Grupo 59" transform="translate(-43.525 -50)">
      <path id="Trazado_333" data-name="Trazado 333" d="M0,42.49S-.463,3.6,42.428,0" transform="translate(479.5 1691.86) rotate(135)" fill="none" stroke="#001e1d" stroke-linecap="round" stroke-width="4"/>
      <path id="Trazado_335" data-name="Trazado 335" d="M0,0,5.9,5.9,11.8,0" transform="translate(446.249 1715.853) rotate(45)" fill="none" stroke="#001e1d" stroke-linecap="round" stroke-width="4"/>
    </g>
    <g id="Grupo_61" data-name="Grupo 61" transform="translate(-43.525 100)">
      <path id="Trazado_333-2" data-name="Trazado 333" d="M0,42.49S-.463,3.6,42.428,0" transform="translate(479.5 1691.86) rotate(135)" fill="none" stroke="#001e1d" stroke-linecap="round" stroke-width="4"/>
      <path id="Trazado_335-2" data-name="Trazado 335" d="M0,0,5.9,5.9,11.8,0" transform="translate(446.249 1715.853) rotate(45)" fill="none" stroke="#001e1d" stroke-linecap="round" stroke-width="4"/>
    </g>
    <g id="Grupo_60" data-name="Grupo 60" transform="translate(-206.337 -14)">
      <path id="Trazado_333-3" data-name="Trazado 333" d="M-1.5,1.5s.924,37.5,42.43,42.488" transform="translate(449.497 1661.816) rotate(45)" fill="none" stroke="#001e1d" stroke-linecap="round" stroke-width="4"/>
      <path id="Trazado_335-3" data-name="Trazado 335" d="M0,6.106,5.9.208,11.38,5.69" transform="translate(454.678 1720.17) rotate(135)" fill="none" stroke="#001e1d" stroke-linecap="round" stroke-width="4"/>
    </g>
    <g id="van" transform="translate(263.046 1672.785)">
      <path id="Trazado_337" data-name="Trazado 337" d="M77.205,38.818A38.6,38.6,0,1,1,38.6.215,38.6,38.6,0,0,1,77.205,38.818Zm0,0" fill="#e8e4e6"/>
      <path id="Trazado_338" data-name="Trazado 338" d="M48.175,52.173H29.394a2.086,2.086,0,0,1,0-4.173h18.78a2.086,2.086,0,0,1,0,4.173Zm0,0" transform="translate(-18.961 -33.179)" fill="#001e1d"/>
      <path id="Trazado_339" data-name="Trazado 339" d="M99.566,72.653H70.353a2.086,2.086,0,1,1,0-4.173H99.566a2.086,2.086,0,0,1,0,4.173Zm0,0" transform="translate(-47.4 -47.399)" fill="#001e1d"/>
      <path id="Trazado_340" data-name="Trazado 340" d="M22.13,161.606h108.8a5.356,5.356,0,0,0,5.356-5.356V145.133L98.139,113.257a16.409,16.409,0,0,0-10.521-3.816H29.755A9.812,9.812,0,0,0,20,118.188l-4,36.59a6.16,6.16,0,0,0,6.125,6.828Zm0,0" transform="translate(-11.087 -75.84)" fill="#e8e4e6"/>
      <g id="Grupo_58" data-name="Grupo 58" transform="translate(2.796 31.514)">
        <path id="Trazado_341" data-name="Trazado 341" d="M126.194,158.953H17.394a8.251,8.251,0,0,1-8.2-9.141l3.994-36.59a11.884,11.884,0,0,1,11.83-10.609H82.883a18.534,18.534,0,0,1,11.86,4.3l38.147,31.876a2.094,2.094,0,0,1,.747,1.6v11.118a7.449,7.449,0,0,1-7.442,7.442ZM25.02,106.787a7.718,7.718,0,0,0-7.681,6.888l-3.994,36.59a4.074,4.074,0,0,0,4.049,4.516h108.8a3.274,3.274,0,0,0,3.269-3.269V141.369l-37.4-31.25a14.344,14.344,0,0,0-9.182-3.332Zm0,0" transform="translate(-9.148 -102.614)" fill="#001e1d"/>
        <path id="Trazado_342" data-name="Trazado 342" d="M131.466,256.634H11.88a2.086,2.086,0,1,1,0-4.173H131.466a2.086,2.086,0,1,1,0,4.173Zm0,0" transform="translate(-9.596 -206.658)" fill="#001e1d"/>
        <path id="Trazado_343" data-name="Trazado 343" d="M165.927,177.915a2.086,2.086,0,0,1-2.087-2.087V132.009a2.086,2.086,0,0,1,4.173,0v43.819A2.085,2.085,0,0,1,165.927,177.915Zm0,0" transform="translate(-116.557 -121.575)" fill="#001e1d"/>
        <path id="Trazado_344" data-name="Trazado 344" d="M119.3,134.095H56.7a2.086,2.086,0,1,1,0-4.173h62.6a2.086,2.086,0,1,1,0,4.173Zm0,0" transform="translate(-40.716 -121.575)" fill="#001e1d"/>
        <path id="Trazado_345" data-name="Trazado 345" d="M117.212,161.4H56.7a2.086,2.086,0,1,1,0-4.173h60.512a2.086,2.086,0,0,1,0,4.173Zm0,0" transform="translate(-40.716 -140.534)" fill="#001e1d"/>
        <path id="Trazado_346" data-name="Trazado 346" d="M71.42,210.026h-29.9a2.087,2.087,0,0,1,0-4.174h29.9a2.087,2.087,0,0,1,0,4.174Zm0,0" transform="translate(-30.176 -174.296)" fill="#001e1d"/>
      </g>
      <path id="Trazado_347" data-name="Trazado 347" d="M286.719,164.055H292.4l21.445,18.779h-17.11L286.719,178.5Zm0,0" transform="translate(-199.08 -113.761)" fill="#c1dbdc"/>
      <path id="Trazado_348" data-name="Trazado 348" d="M309.107,180.179H292a2.11,2.11,0,0,1-.829-.171l-10.015-4.335a2.087,2.087,0,0,1-1.257-1.915V159.313a2.085,2.085,0,0,1,2.086-2.087h5.682a2.094,2.094,0,0,1,1.375.517l21.445,18.78a2.088,2.088,0,0,1-1.377,3.656Zm-16.679-4.173h11.128L286.877,161.4h-2.809v10.987Zm0,0" transform="translate(-194.342 -109.019)" fill="#001e1d"/>
      <path id="Trazado_349" data-name="Trazado 349" d="M281.981,202.746a2.084,2.084,0,0,1-2.086-2.086V179.794a2.086,2.086,0,1,1,4.173,0V200.66A2.085,2.085,0,0,1,281.981,202.746Zm0,0" transform="translate(-194.342 -123.24)" fill="#001e1d"/>
      <path id="Trazado_350" data-name="Trazado 350" d="M347.108,265.284a10.679,10.679,0,1,1-10.679-10.679A10.678,10.678,0,0,1,347.108,265.284Zm0,0" transform="translate(-226.181 -176.633)" fill="#6b4f5b"/>
      <path id="Trazado_351" data-name="Trazado 351" d="M331.691,273.31a12.766,12.766,0,1,1,12.766-12.765A12.779,12.779,0,0,1,331.691,273.31Zm0-21.358a8.592,8.592,0,1,0,8.593,8.593A8.6,8.6,0,0,0,331.691,251.952Zm0,0" transform="translate(-221.443 -171.893)" fill="#001e1d"/>
      <path id="Trazado_352" data-name="Trazado 352" d="M355.659,280.555A3.956,3.956,0,1,1,351.7,276.6,3.956,3.956,0,0,1,355.659,280.555Zm0,0" transform="translate(-241.454 -191.904)" fill="#b5a19c"/>
      <path id="Trazado_353" data-name="Trazado 353" d="M346.964,281.859a6.043,6.043,0,1,1,6.044-6.042A6.048,6.048,0,0,1,346.964,281.859Zm0-7.913a1.87,1.87,0,1,0,1.871,1.871A1.871,1.871,0,0,0,346.964,273.947Zm0,0" transform="translate(-236.716 -187.166)" fill="#001e1d"/>
      <path id="Trazado_354" data-name="Trazado 354" d="M67.616,265.284a10.679,10.679,0,1,1-10.679-10.679A10.678,10.678,0,0,1,67.616,265.284Zm0,0" transform="translate(-32.119 -176.633)" fill="#6b4f5b"/>
      <path id="Trazado_355" data-name="Trazado 355" d="M52.2,273.31a12.766,12.766,0,1,1,12.765-12.765A12.78,12.78,0,0,1,52.2,273.31Zm0-21.358a8.592,8.592,0,1,0,8.592,8.593A8.6,8.6,0,0,0,52.2,251.952Zm0,0" transform="translate(-27.38 -171.893)" fill="#001e1d"/>
      <path id="Trazado_356" data-name="Trazado 356" d="M76.166,280.555A3.956,3.956,0,1,1,72.21,276.6,3.956,3.956,0,0,1,76.166,280.555Zm0,0" transform="translate(-47.391 -191.904)" fill="#b5a19c"/>
      <path id="Trazado_357" data-name="Trazado 357" d="M67.47,281.859a6.043,6.043,0,1,1,6.042-6.042A6.051,6.051,0,0,1,67.47,281.859Zm0-7.913a1.87,1.87,0,1,0,1.869,1.871A1.873,1.873,0,0,0,67.47,273.947Zm0,0" transform="translate(-42.65 -187.166)" fill="#001e1d"/>
      <path id="Trazado_358" data-name="Trazado 358" d="M390.641,222.841h-6.26a2.086,2.086,0,1,1,0-4.173h6.26a2.086,2.086,0,0,1,0,4.173Zm0,0" transform="translate(-265.442 -151.68)" fill="#f9bc60"/>
      <path id="Trazado_359" data-name="Trazado 359" d="M22,236.494h-6.26a2.086,2.086,0,1,1,0-4.173H22a2.086,2.086,0,0,1,0,4.173Zm0,0" transform="translate(-9.479 -161.16)" fill="#e16162"/>
    </g>
    <g id="houses" transform="translate(271.476 1819)">
      <path id="Trazado_360" data-name="Trazado 360" d="M423.484,20.742A10.742,10.742,0,1,1,412.742,10,10.742,10.742,0,0,1,423.484,20.742Zm0,0" transform="translate(-315.633 -7.852)" fill="#f9bc60"/>
      <path id="Trazado_361" data-name="Trazado 361" d="M404.891,25.781a12.891,12.891,0,1,1,12.891-12.891A12.9,12.9,0,0,1,404.891,25.781Zm0-21.484a8.594,8.594,0,1,0,8.594,8.594A8.6,8.6,0,0,0,404.891,4.3Zm0,0" transform="translate(-307.781)" fill="#001e1d"/>
      <path id="Trazado_362" data-name="Trazado 362" d="M65.461,28.023A12.487,12.487,0,0,0,48.683,16.305a15.248,15.248,0,0,0-26,2.148A11.078,11.078,0,0,0,10,29.42H65.381a12.57,12.57,0,0,0,.08-1.4Zm0,0" transform="translate(-7.852 -7.852)" fill="#4bc6ff"/>
      <path id="Trazado_363" data-name="Trazado 363" d="M57.529,23.717H2.148A2.149,2.149,0,0,1,0,21.569,13.242,13.242,0,0,1,13.625,8.343,17.4,17.4,0,0,1,41.6,5.974a14.64,14.64,0,0,1,18.158,14.2,14.909,14.909,0,0,1-.093,1.634,2.148,2.148,0,0,1-2.135,1.911ZM4.558,19.42H55.433a10.34,10.34,0,0,0-13.862-8.95,2.148,2.148,0,0,1-2.478-.754,13.1,13.1,0,0,0-22.34,1.845,2.151,2.151,0,0,1-2.23,1.167A8.928,8.928,0,0,0,4.558,19.42Zm0,0" transform="translate(0 0)" fill="#001e1d"/>
      <path id="Trazado_364" data-name="Trazado 364" d="M34.922,415.207H10v18.647H115.7V415.207H90.674" transform="translate(-7.852 -326.003)" fill="#a7dbd8"/>
      <path id="Trazado_365" data-name="Trazado 365" d="M439.646,452.9a2.094,2.094,0,0,1-.419-.044,1.955,1.955,0,0,1-.4-.12,2.171,2.171,0,0,1-.37-.2,2.252,2.252,0,0,1-.326-.269,2.1,2.1,0,0,1-.269-.327,2.164,2.164,0,0,1-.2-.369,2.24,2.24,0,0,1-.123-.4,2.1,2.1,0,0,1-.041-.42,2.076,2.076,0,0,1,.041-.42,2.151,2.151,0,0,1,.123-.4,2.126,2.126,0,0,1,.2-.372,2.042,2.042,0,0,1,.267-.326,2.079,2.079,0,0,1,.326-.267,2.253,2.253,0,0,1,.372-.2,2.135,2.135,0,0,1,1.241-.123,2.16,2.16,0,0,1,.4.123,2.286,2.286,0,0,1,.372.2,2.159,2.159,0,0,1,.326.267,2.037,2.037,0,0,1,.266.326,2.074,2.074,0,0,1,.2.372,2.169,2.169,0,0,1,.123.4,2.137,2.137,0,0,1,.043.42,2.165,2.165,0,0,1-.043.42,2.238,2.238,0,0,1-.123.4,2.11,2.11,0,0,1-.2.369,2.043,2.043,0,0,1-.266.327,2.4,2.4,0,0,1-.326.269,2.286,2.286,0,0,1-.372.2,1.978,1.978,0,0,1-.4.12A2.094,2.094,0,0,1,439.646,452.9Zm0,0" transform="translate(-343.506 -352.225)" fill="#001e1d"/>
      <path id="Trazado_366" data-name="Trazado 366" d="M163.477,211.293l-25.317,18.6v34.534H188.8V229.891Zm0,0" transform="translate(-108.477 -165.898)" fill="#fcc595"/>
      <path id="Trazado_367" data-name="Trazado 367" d="M223.328,378.949h14.038v17.113H223.328Zm0,0" transform="translate(-175.348 -297.534)" fill="#d38a5a"/>
      <path id="Trazado_368" data-name="Trazado 368" d="M178.005,189.883,148.624,168.3l-29.382,21.583V178.119l29.382-21.583,29.382,21.583Zm0,0" transform="translate(-93.624 -122.905)" fill="#ff5046"/>
      <path id="Trazado_369" data-name="Trazado 369" d="M59.933,211.216,55.868,214.2V202.437l14.149-10.394-6.173-4.535-25.317,18.6v30.322h21.4Zm0,0" transform="translate(-30.25 -147.223)" fill="#db9970"/>
      <path id="Trazado_370" data-name="Trazado 370" d="M55.165,149.049l8.007-5.882L48.991,132.75,19.61,154.333V166.1l29.382-21.583Zm0,0" transform="translate(-15.397 -104.229)" fill="#ff5046"/>
      <path id="Trazado_371" data-name="Trazado 371" d="M303.81,132.75l-14.181,10.417,8.007,5.882,6.173-4.535L333.191,166.1V154.333Zm0,0" transform="translate(-227.404 -104.23)" fill="#ff5046"/>
      <path id="Trazado_372" data-name="Trazado 372" d="M341.048,202.437V214.2l-4.064-2.985v25.211H358.39V206.106l-25.317-18.6-6.173,4.535Zm0,0" transform="translate(-256.667 -147.223)" fill="#db9970"/>
      <path id="Trazado_373" data-name="Trazado 373" d="M107.851,183.432h-3.98V159.5l.644.472a2.149,2.149,0,0,0,3.421-1.731V146.48a2.15,2.15,0,0,0-.877-1.732L77.678,123.165a2.151,2.151,0,0,0-2.545,0l-12.909,9.483-5.952-4.372a2.148,2.148,0,0,0-2.545,0l-5.953,4.372-12.909-9.483a2.149,2.149,0,0,0-2.544,0L2.941,144.749a2.149,2.149,0,0,0-.876,1.731v11.764a2.149,2.149,0,0,0,3.42,1.732l.645-.473v23.929H2.148A2.148,2.148,0,0,0,0,185.581v18.647a2.148,2.148,0,0,0,2.148,2.148h105.7A2.148,2.148,0,0,0,110,204.228V185.581a2.148,2.148,0,0,0-2.148-2.148Zm-8.277-27.085v27.085H82.466V164.613l.645.473.033.024.011.007.023.016.013.009.021.013.014.009.022.014.012.007.024.015.011.007.029.017.006,0,.074.039,0,0,.032.016.008,0,.029.013.008,0,.031.014.006,0a2.15,2.15,0,0,0,1.565.06h0c.037-.013.073-.027.109-.042l.01,0,.02-.008.013-.005.017-.008.017-.008.015-.007.019-.009.012-.006.031-.015a2.149,2.149,0,0,0,1.178-1.917V151.59a2.149,2.149,0,0,0-.876-1.731L73.861,141.2l2.545-1.869Zm-39.7,36.408H50.129V179.94h9.742Zm2.148-17.113H47.98a2.149,2.149,0,0,0-2.148,2.148v14.964h-14v-31.3L55,144.437l23.169,17.02v31.3h-14V177.791a2.149,2.149,0,0,0-2.148-2.148Zm14.386-48.08,27.233,20.006V154L77.678,134.929a2.15,2.15,0,0,0-2.362-.12c-.063.037-.123.077-.182.12l-4.9,3.6-4.378-3.217ZM55,132.672l27.233,20.006v6.433L56.272,140.04a1.955,1.955,0,0,0-.183-.12,2.147,2.147,0,0,0-2.179,0c-.062.037-.123.076-.182.12L27.767,159.111v-6.433Zm-48.639,14.9,27.233-20.006,10.552,7.751-4.378,3.217-4.9-3.6a2.147,2.147,0,0,0-2.544,0L6.361,154Zm4.064,8.779,23.169-17.02,2.545,1.87-11.793,8.663-.025.018a2.148,2.148,0,0,0-.822,1.365c0,.021-.007.042-.009.063l-.008.063a2.168,2.168,0,0,0-.012.222v11.765a2.149,2.149,0,0,0,1.178,1.917l.034.017a2.153,2.153,0,0,0,2.209-.2l.644-.473v18.819H10.426Zm17.109,31.382v5.026H4.3v-5.026Zm78.169,14.35H4.3v-5.027H87.441a2.148,2.148,0,1,0,0-4.3H82.466v-5.026H105.7Zm0,0" transform="translate(0 -96.376)" fill="#001e1d"/>
      <path id="Trazado_374" data-name="Trazado 374" d="M237.023,278.57a7.149,7.149,0,1,1-7.149-7.149A7.149,7.149,0,0,1,237.023,278.57Zm0,0" transform="translate(-174.875 -213.108)" fill="#a7dbd8"/>
      <path id="Trazado_375" data-name="Trazado 375" d="M222.024,280.019a9.3,9.3,0,1,1,9.3-9.3A9.307,9.307,0,0,1,222.024,280.019Zm0-14.3a5,5,0,1,0,5,5A5.006,5.006,0,0,0,222.024,265.722Zm0,0" transform="translate(-167.024 -205.26)" fill="#001e1d"/>
    </g>
    <text id="De_nuestros_agricultores" data-name="De nuestros agricultores" transform="translate(467.475 1524)" fill="#004643" font-size="38" font-family="ProximaNova-Bold, Proxima Nova" font-weight="700"><tspan x="0" y="35">De nuestros </tspan><tspan x="0" y="81">agricultores</tspan></text>
    <text id="Lo_recogemos" data-name="Lo recogemos" transform="translate(467.475 1698)" fill="#004643" font-size="38" font-family="ProximaNova-Bold, Proxima Nova" font-weight="700"><tspan x="0" y="35">Lo recogemos</tspan></text>
    <text id="Te_lo_llevamos_a_casa_24h_" data-name="Te lo llevamos a casa 24h!" transform="translate(467.475 1827)" fill="#004643" font-size="38" font-family="ProximaNova-Bold, Proxima Nova" font-weight="700"><tspan x="0" y="35">Te lo llevamos a </tspan><tspan x="0" y="81">casa 24h!</tspan></text>
  </g>
</svg>
