<svg xmlns="http://www.w3.org/2000/svg" width="535.149" height="260.997" viewBox="0 0 535.149 260.997">
  <g id="Grupo_53" data-name="Grupo 53" transform="translate(-7.117 -33.94)">
    <g id="Grupo_49" data-name="Grupo 49" transform="translate(145.511 39.348)">
      <path id="Trazado_271" data-name="Trazado 271" d="M31.213,149.786c70.041,7.323,78.185,5.847,108.705-3.75,47.28-16.374,73.607-66.612,90.97-108.458C110.053,24.063,88.17,61.349,31.213,149.786Z" transform="translate(-31.213 -34.882)" fill="#abd1c6"/>
      <path id="Trazado_272" data-name="Trazado 272" d="M34.075,147.347s77.76-5.3,100.814-21.274c19.35-13.405,82.424-90.723,82.424-90.723C190.8,100.745,125.705,182.618,34.075,147.347Z" transform="translate(-17.637 -32.655)" fill="#81a399"/>
    </g>
    <g id="Grupo_52" data-name="Grupo 52" transform="translate(7.117 33.94)">
      <g id="Grupo_50" data-name="Grupo 50" transform="translate(127.154)">
        <path id="Trazado_273" data-name="Trazado 273" d="M35.265,54.926A31.132,31.132,0,0,0,40,62.508c2.286,2.458,5.29,3.733,8.414,4.773,1.241.414,1.826-1.528.592-1.941-2.877-.959-5.617-2.1-7.685-4.394a30.122,30.122,0,0,1-4.267-6.978c-.586-1.172-2.372-.213-1.792.959Z" transform="translate(-1.293 58.528)" fill="#040404"/>
        <path id="Trazado_274" data-name="Trazado 274" d="M237.937,38.144a266.543,266.543,0,0,1-17.827,37.895c-11.418,20.515-25.191,40.359-42.978,55.878a100.683,100.683,0,0,1-27.178,17.374c-10.872,4.537-22.968,7.093-34.615,8.627-16.639,2.188-32.881.557-49.244-2.653-11.579-2.269-23.64-4.779-35.339-1.775a2.03,2.03,0,0,0,.948,3.946c7.317-1.436,14.571-3.676,21.727-5.726a433.467,433.467,0,0,0,44.9-15.266c13.428-5.491,27.873-11.843,38.492-22.02a36.308,36.308,0,0,0,5.163-6.088,63.439,63.439,0,0,1,9.77-11.452c10.08-9.448,21.676-17.282,33.289-24.7a621.118,621.118,0,0,1,55.791-31.658c1.959-.982.965-3.584-.907-3.819a346.439,346.439,0,0,0-80.189-.821c-17.563,1.924-36.471,5.382-51.553,15.145-19.085,12.354-32.7,32.485-44.253,51.6-6.226,10.3-11.935,20.889-18.12,31.2-4.221,7.047-8.69,14.956-15.358,20-2.085,1.579.695,4.537,2.763,2.975,5.6-4.244,9.643-10.556,13.336-16.426,5.37-8.523,10.177-17.391,15.22-26.109,11.458-19.82,23.95-40,41.783-54.769,14.238-11.8,32.508-16.346,50.479-18.856,18.184-2.539,36.683-2.843,55.01-2.16,10.263.379,20.579.994,30.779,2.274l-.907-3.819c-15.754,7.9-31.181,16.558-46.24,25.713a346.642,346.642,0,0,0-34.225,23.2,118.968,118.968,0,0,0-13.382,11.946,102.142,102.142,0,0,0-7.42,9.66c-3.7,4.985-9.04,8.793-14.249,12.055a160.253,160.253,0,0,1-20.533,10.608,381.433,381.433,0,0,1-45.7,16.265c-8.684,2.567-17.512,5.347-26.414,7.093l.948,3.946c10.442-2.682,21.274-.626,31.629,1.4,16.173,3.165,32.123,5.226,48.629,3.532,22.416-2.309,44.115-8.81,62.109-22.692,18.7-14.427,33.266-33.978,45.252-54.137,8.707-14.646,16.644-30.176,22.5-46.217.9-2.452-2.992-3.624-3.883-1.177Z" transform="translate(-29.256 -33.94)" fill="#040404"/>
        <path id="Trazado_275" data-name="Trazado 275" d="M61.3,38.939c2.062,2.1,4.273,4.279,7.162,5.163a21.235,21.235,0,0,0,4.5.643l4.83.391c1.3.1,1.35-1.924.052-2.027l-4.509-.362a22.258,22.258,0,0,1-4-.505c-2.671-.724-4.669-2.768-6.553-4.681-.919-.93-2.406.448-1.488,1.378Z" transform="translate(121.37 -18.234)" fill="#040404"/>
        <path id="Trazado_276" data-name="Trazado 276" d="M63.41,50.206a11.664,11.664,0,0,1-.494-6.6A30.6,30.6,0,0,1,65.351,36a1.054,1.054,0,0,0-.322-1.4,1.021,1.021,0,0,0-1.4.316c-2.251,4.865-4.267,11.039-2.01,16.248.517,1.2,2.3.235,1.786-.953Z" transform="translate(119.593 -31.528)" fill="#040404"/>
        <path id="Trazado_277" data-name="Trazado 277" d="M58.578,40.068c2.3,3.785,3.842,8.276,7.392,11.136,1.964,1.585,4.411,2.355,6.754,3.2a73.253,73.253,0,0,0,8.563,2.619c1.264.281,1.861-1.654.586-1.941a66.778,66.778,0,0,1-7.621-2.286c-2.338-.827-4.911-1.528-6.9-3.067-3.389-2.625-4.83-7.064-6.984-10.62-.678-1.114-2.47-.161-1.792.959Z" transform="translate(109.118 -11.782)" fill="#040404"/>
        <path id="Trazado_278" data-name="Trazado 278" d="M63.24,58.895A32.784,32.784,0,0,1,60.8,35.588c.339-1.258-1.6-1.849-1.941-.586a34.946,34.946,0,0,0,2.59,24.846,1.016,1.016,0,0,0,1.792-.953Z" transform="translate(105.513 -32.234)" fill="#040404"/>
        <path id="Trazado_279" data-name="Trazado 279" d="M55.97,41.633a35.155,35.155,0,0,0,4.543,7.7c1.993,2.366,4.606,3.762,7.3,5.175,6.151,3.216,12.377,6.352,19.1,8.2a1.014,1.014,0,0,0,.586-1.941c-6.329-1.74-12.2-4.635-18-7.662-2.642-1.378-5.313-2.653-7.306-4.934a32.252,32.252,0,0,1-4.428-7.489c-.569-1.183-2.355-.224-1.792.953Z" transform="translate(96.948 -4.537)" fill="#040404"/>
        <path id="Trazado_280" data-name="Trazado 280" d="M62.725,67.272a68.437,68.437,0,0,1-5.91-31.859c.075-1.3-1.953-1.355-2.027-.052a70.542,70.542,0,0,0,6.151,32.864c.54,1.195,2.326.23,1.786-.953Z" transform="translate(91.353 -31.715)" fill="#040404"/>
        <path id="Trazado_281" data-name="Trazado 281" d="M53.448,43.538a48.063,48.063,0,0,0,11.63,17.224c5.479,4.957,12.113,8.316,18.666,11.607,1.16.58,2.251-1.131,1.086-1.717-6.381-3.2-12.928-6.444-18.264-11.269a46.823,46.823,0,0,1-11.332-16.8c-.505-1.206-2.292-.241-1.786.953Z" transform="translate(85.072 4.431)" fill="#040404"/>
        <path id="Trazado_282" data-name="Trazado 282" d="M62.643,76.9a168.117,168.117,0,0,1-8.965-41.163c-.109-1.287-2.142-1.355-2.027-.052a169.512,169.512,0,0,0,9.023,41.686c.425,1.218,2.407.764,1.97-.471Z" transform="translate(76.945 -30.144)" fill="#040404"/>
        <path id="Trazado_283" data-name="Trazado 283" d="M49.268,47.2A33.8,33.8,0,0,0,65.235,61.1c8.029,3.452,16.489,6.082,24.7,9.057,1.229.448,1.815-1.493.592-1.941-7.484-2.705-15.03-5.29-22.457-8.15C60.922,57.312,55,52.89,51.055,46.245c-.666-1.12-2.458-.172-1.786.953Z" transform="translate(64.968 22.044)" fill="#040404"/>
        <path id="Trazado_284" data-name="Trazado 284" d="M62.713,96.337a248.117,248.117,0,0,1-10.5-30.067c-2.8-9.781-4.595-19.872-3.3-30.049.161-1.292-1.867-1.338-2.027-.052-1.321,10.338.5,20.642,3.348,30.572A251.547,251.547,0,0,0,60.927,97.291c.517,1.2,2.3.235,1.786-.953Z" transform="translate(52.282 -27.83)" fill="#040404"/>
        <path id="Trazado_285" data-name="Trazado 285" d="M46.633,50.445c3.555,1.9,5.651,5.278,8.351,8.121A37.626,37.626,0,0,0,64.3,65.309c7.07,3.877,15.134,7.5,23.249,8.207,1.3.115,1.35-1.913.052-2.027-8.23-.724-16.593-4.623-23.663-8.713a33.339,33.339,0,0,1-8.879-7.185c-2.217-2.585-4.285-5.232-7.34-6.858-1.149-.615-2.24,1.1-1.085,1.712Z" transform="translate(50.838 35.608)" fill="#040404"/>
        <path id="Trazado_286" data-name="Trazado 286" d="M63.643,103.267a106.416,106.416,0,0,1-14.663-30,105.912,105.912,0,0,1-3.492-15.783c-.9-6.375-1.436-13.256,2.137-18.953a1.016,1.016,0,0,0-1.717-1.085c-3.2,5.106-3.429,11.05-2.837,16.9a102.1,102.1,0,0,0,3.4,17.569,107.935,107.935,0,0,0,15.387,32.307c.735,1.057,2.533.115,1.786-.953Z" transform="translate(35.052 -19.489)" fill="#040404"/>
        <path id="Trazado_287" data-name="Trazado 287" d="M42.584,52.388c2.895,5.692,6.025,11.625,11.366,15.4a39.8,39.8,0,0,0,9.241,4.434,88.222,88.222,0,0,0,11.584,3.371c1.269.276,1.867-1.666.592-1.941-6.662-1.465-14.043-3.412-19.8-7.214-5.347-3.532-8.374-9.454-11.2-15-.592-1.166-2.378-.207-1.786.953Z" transform="translate(33.402 46.531)" fill="#040404"/>
        <path id="Trazado_288" data-name="Trazado 288" d="M63.771,93.554c-6.95-6.111-10.464-15.122-14.812-23.077-4.681-8.558-9.494-17.6-8.638-27.666.109-1.3-1.918-1.35-2.027-.052C37.432,52.89,42.079,62.1,46.788,70.741c4.537,8.3,8.242,17.81,15.5,24.2.976.856,2.47-.517,1.488-1.384Z" transform="translate(13.121 3.395)" fill="#040404"/>
        <path id="Trazado_289" data-name="Trazado 289" d="M39.265,53.489c2.607,5.037,5.83,9.838,10.263,13.451,5.054,4.124,11.355,5.8,17.575,7.306,1.264.31,1.861-1.631.592-1.941-5.87-1.424-11.849-2.935-16.679-6.754-4.342-3.429-7.443-8.156-9.965-13.015a1.013,1.013,0,0,0-1.786.953Z" transform="translate(17.641 51.753)" fill="#040404"/>
        <path id="Trazado_290" data-name="Trazado 290" d="M53.83,82.719C46.461,71.7,38.667,59.941,38.1,46.255c-.052-1.292-2.085-1.361-2.027-.052.58,14.089,8.368,26.115,15.967,37.47.718,1.08,2.516.132,1.786-.953Z" transform="translate(3.093 19.72)" fill="#040404"/>
        <path id="Trazado_291" data-name="Trazado 291" d="M45.111,71.635c-4.773-6.232-9.166-13.353-9.85-21.354-.109-1.287-2.137-1.355-2.027-.052.735,8.592,5.255,16.082,10.39,22.784.8,1.04,2.28-.35,1.488-1.378Z" transform="translate(-10.409 38.839)" fill="#040404"/>
        <path id="Trazado_292" data-name="Trazado 292" d="M51.2,45.662c2.177,2.866,3.814,6.105,6.031,8.942a26.1,26.1,0,0,0,7.886,6.467c6.881,3.94,13.968,7.558,20.958,11.3,1.149.615,2.234-1.1,1.085-1.712-6.783-3.63-13.606-7.191-20.314-10.941a25.571,25.571,0,0,1-8.529-7.024c-2-2.717-3.584-5.715-5.629-8.408-.793-1.04-2.274.35-1.488,1.378Z" transform="translate(73.781 13.38)" fill="#040404"/>
        <path id="Trazado_293" data-name="Trazado 293" d="M59.844,85.542A68.305,68.305,0,0,1,52.883,61.81c-.419-4.124-.27-8.265-.5-12.394-.253-4.463-.793-8.914-1.223-13.359-.126-1.281-2.16-1.35-2.027-.052.448,4.589,1.011,9.184,1.241,13.79.224,4.336.1,8.667.586,12.992a70.506,70.506,0,0,0,7.1,23.709c.586,1.172,2.372.213,1.786-.953Z" transform="translate(64.995 -28.613)" fill="#040404"/>
        <path id="Trazado_294" data-name="Trazado 294" d="M44.1,51.427c3.113,5.835,6.978,11.55,12.544,15.3,6.57,4.422,14.8,4.089,21.693,7.69,1.154.6,2.24-1.114,1.085-1.717C72.893,69.295,65.1,69.484,58.77,65.676c-5.824-3.5-9.752-9.327-12.882-15.209a1.017,1.017,0,0,0-1.792.959Z" transform="translate(40.534 41.995)" fill="#040404"/>
        <path id="Trazado_295" data-name="Trazado 295" d="M62.4,98.436C59.212,94.547,57.133,90,55.2,85.4q-3.188-7.581-5.91-15.358c-3.308-9.448-6.858-19.332-6.961-29.452-.011-1.3-2.039-1.361-2.027-.052.109,10.614,3.819,20.958,7.329,30.854q2.671,7.564,5.784,14.967c2.01,4.773,4.2,9.431,7.5,13.457.827,1.011,2.309-.373,1.488-1.378Z" transform="translate(23.126 -7.179)" fill="#040404"/>
      </g>
      <g id="Grupo_51" data-name="Grupo 51" transform="translate(0 117.932)">
        <path id="Trazado_296" data-name="Trazado 296" d="M68.481,168.642c.379-1.264.747-2.441,1.091-3.515s.683-2.16,1.005-3.239q1.232-4.945,2.28-9.988.672-3.231,1.287-6.415t1.1-6.421q1.042-6.375,1.9-12.7t1.9-12.7c.379-2.223.787-4.388,1.229-6.519s.925-4.3,1.436-6.513q1.327-5.514,2.516-10.987T86.745,78.66a79.191,79.191,0,0,1,2.854-9.6q.758-2.093,1.712-4.187a38.691,38.691,0,0,1,2.1-4,7.69,7.69,0,0,1,1.66-1.855c.666-.534,1.35-1.091,2.045-1.66a1.142,1.142,0,0,1,1.287-.287,10.918,10.918,0,0,0,1.189.477,1.014,1.014,0,0,1,.712.856,3.4,3.4,0,0,1-.144,1.235c-.442,1.459-.873,2.918-1.281,4.376s-.781,2.918-1.1,4.371q-1.051,4.661-2.091,9.322T93.6,87.126q-1.43,7.133-2.906,14.129t-2.8,14.123q-.767,4.377-1.332,8.8t-1.332,8.8q-.379,2.188-.81,4.422t-.9,4.422q-1.051,4.661-2.045,9.322t-2.142,9.23c-.442,1.838-.936,3.641-1.47,5.416s-1.131,3.555-1.763,5.33a10.494,10.494,0,0,1-2.28,3.8q-1.525,1.62-3.136,3.233a13.684,13.684,0,0,1-3.331,2.475q-1.809.948-3.613,2a9.6,9.6,0,0,1-1.051.712,9.6,9.6,0,0,0-1.051.712,10.509,10.509,0,0,1-3.7,1.286,5.718,5.718,0,0,1-3.71-.9,22.315,22.315,0,0,1-3.808-2.619,21.237,21.237,0,0,1-3.136-3.377,74.094,74.094,0,0,1-6.186-10.131c-1.769-3.515-3.394-7.145-4.847-10.89q-3.145-7.891-6.278-15.645t-6.18-15.743q-3.239-8.279-6.427-16.455T11.03,93.024A74.694,74.694,0,0,1,8.365,84.18,49.617,49.617,0,0,1,7.13,74.95a14.9,14.9,0,0,1,2.378-8.845q1.9-3.136,4.664-3.475t5.8,2.142a9.143,9.143,0,0,1,2.1,2.28q.844,1.335,1.614,2.665Q26.25,74.861,28.771,79.9T33.762,90.17q2.188,4.661,4.141,9.322t3.946,9.419q2.662,6.28,5.278,12.366t5.181,12.366q2.188,5.324,4.331,10.6t4.428,10.516a66.053,66.053,0,0,0,3.182,6.461c1.177,2.1,2.3,4.25,3.377,6.467a.945.945,0,0,0,.287.339A3.751,3.751,0,0,1,68.481,168.642Z" transform="translate(-7.117 -42.606)" fill="#040404"/>
        <path id="Trazado_297" data-name="Trazado 297" d="M88.687,121.845q-1.809,3.989-3.664,7.9t-3.946,7.794a56.012,56.012,0,0,1-4.325,7.087q-2.429,3.377-5.186,6.519a28.488,28.488,0,0,1-9.465,7.466,22.052,22.052,0,0,1-12.124,1.757A24.524,24.524,0,0,1,37.8,155.9a29.044,29.044,0,0,1-8.368-9.988,49.429,49.429,0,0,1-3.567-9.276,56.865,56.865,0,0,1-1.763-9.752,56.345,56.345,0,0,1-.425-7.7q.043-3.8.235-7.708a63.388,63.388,0,0,1,.856-7.891,68.258,68.258,0,0,1,1.809-7.8,84.649,84.649,0,0,1,3.946-11.033,42.748,42.748,0,0,1,6.134-9.988A33.025,33.025,0,0,1,41.7,69.672a36.865,36.865,0,0,1,5.99-3.946,34.685,34.685,0,0,1,5.663-2.332A25.073,25.073,0,0,1,59.3,62.3a29.8,29.8,0,0,1,6.754.385,15.248,15.248,0,0,1,6.369,2.757c.505.379,1.034.747,1.574,1.091s1.091.683,1.666,1A21.48,21.48,0,0,1,80.744,72.1,49.768,49.768,0,0,1,84.7,77.8a17.242,17.242,0,0,1,2.28,6.467,22.062,22.062,0,0,1-.19,7.041A37.245,37.245,0,0,1,75.661,111.57q-2.576,2.481-5.232,4.8a57.263,57.263,0,0,1-5.617,4.331,44.3,44.3,0,0,1-8.707,4.474,30.274,30.274,0,0,1-9.649,1.9,7.811,7.811,0,0,0-.856.19,41.226,41.226,0,0,0,2,7.7,22.016,22.016,0,0,0,3.9,6.657,14.573,14.573,0,0,0,4.893,3.71,16.52,16.52,0,0,0,5.944,1.43,3.821,3.821,0,0,0,2.338-.523c.666-.413,1.344-.873,2.039-1.384a32.37,32.37,0,0,0,4-4.135,44.8,44.8,0,0,0,3.325-4.71q2.188-3.325,4-6.749a70.879,70.879,0,0,0,3.228-7.041,12.055,12.055,0,0,1,1.763-2.9,4.49,4.49,0,0,1,2.9-1.476,4.874,4.874,0,0,1,1.993.569,3.281,3.281,0,0,1,1.051,1.287A2.494,2.494,0,0,1,88.687,121.845Zm-43.943-.1c.821-.126,1.568-.218,2.228-.281a10.49,10.49,0,0,0,1.953-.385,28.749,28.749,0,0,0,6.329-2.234,35.8,35.8,0,0,0,5.657-3.469q2.188-1.62,4.187-3.285t3.894-3.469a27.719,27.719,0,0,0,6.283-8.184,33.91,33.91,0,0,0,3.136-9.8,10.674,10.674,0,0,0,0-4.514,9.4,9.4,0,0,0-2.091-4.043,13.986,13.986,0,0,0-7.179-4.71,11.8,11.8,0,0,0-8.42,1,21.629,21.629,0,0,0-6.421,4.71A27.378,27.378,0,0,0,49.787,89.6a49.91,49.91,0,0,0-4.376,13.032,64.945,64.945,0,0,0-1.091,7.42,53.6,53.6,0,0,0-.149,7.512c.063.7.149,1.384.241,2.045S44.612,120.989,44.744,121.747Z" transform="translate(71.412 -17.588)" fill="#040404"/>
        <path id="Trazado_298" data-name="Trazado 298" d="M89.138,75.921q.569,3.9.9,7.708a69.816,69.816,0,0,1,.241,7.8c0,.569-.034,1.137-.092,1.712a14.454,14.454,0,0,1-.287,1.614l-.574,5.427a2.734,2.734,0,0,1-1.666.327,2.41,2.41,0,0,1-1.281-1.091,13.505,13.505,0,0,1-3.044-7.225c-.258-1.844-.431-3.71-.528-5.617s-.264-3.773-.517-5.611a39.034,39.034,0,0,0-.81-4.043q-.526-2.042-1-4.043A6.666,6.666,0,0,0,79.96,71.6c-.224-.414-.465-.873-.718-1.378-.632.505-1.246.965-1.849,1.378a11.734,11.734,0,0,0-1.666,1.378,83.59,83.59,0,0,0-6.278,6.8,68.169,68.169,0,0,0-5.422,7.564,55.349,55.349,0,0,0-3.951,7.7,56,56,0,0,0-2.705,8.276,2.825,2.825,0,0,0-.19,1.091V105.6c.19,1.654.391,3.285.615,4.9s.494,3.245.81,4.9a56.31,56.31,0,0,1,.994,6.18c.23,2.091.494,4.187.816,6.278.126.632.235,1.235.333,1.8s.207,1.143.327,1.717c.132,1.332.27,2.659.431,3.992s.3,2.636.431,3.9c.19,1.269.379,2.573.569,3.9s.385,2.63.569,3.9c.126.574.253,1.143.379,1.717s.253,1.137.385,1.706a3.187,3.187,0,0,1,.092,1.332c-.057.448-.126.89-.19,1.332a21.12,21.12,0,0,1-.327,2.43,5.015,5.015,0,0,1-1,2.137l-.574.569a2.912,2.912,0,0,1-2,.672,12.025,12.025,0,0,1-2.567.85,14.3,14.3,0,0,1-3.279.385,8.616,8.616,0,0,1-3.044-.523,3,3,0,0,1-1.861-1.855,95.259,95.259,0,0,1-2.424-9.9q-1.18-5.988-2.326-13.17t-2.194-15.03Q41.1,111.878,40.2,104.219t-1.62-14.6q-.715-6.935-1.241-12.268c-.345-3.555-.6-6.4-.758-8.563s-.235-3.3-.235-3.423c.057-.19.345-.414.856-.666a10.14,10.14,0,0,1,1.757-.666c.666-.19,1.344-.362,2.045-.523s1.235-.3,1.614-.425a.565.565,0,0,1,.385-.1c.063,0,.092-.029.092-.1v.1a3.5,3.5,0,0,1,1.1-.19h1a1.516,1.516,0,0,1,1.43.666c.253.442.563.953.948,1.522A33.75,33.75,0,0,1,50.714,71.5q1.232,3.472,2.182,7.087c.448,1.648.81,3.3,1.1,4.945s.58,3.3.9,4.951a1.167,1.167,0,0,0,.046.333,4.326,4.326,0,0,1,.144.615c.253-.505.477-.948.672-1.332s.345-.724.471-1.045a39.451,39.451,0,0,1,4.847-8.466q2.473-3.231,5.043-6.375a37.9,37.9,0,0,1,5.807-5.7c.442-.385.9-.747,1.378-1.1s.965-.741,1.47-1.189a8.207,8.207,0,0,1,3.664-1.666,15.748,15.748,0,0,1,4.043-.144,2.324,2.324,0,0,1,1.424.672,10.369,10.369,0,0,1,1.051,1.235,14.844,14.844,0,0,1,2.895,5.514A54.163,54.163,0,0,1,89.138,75.921Z" transform="translate(131.548 -17.135)" fill="#040404"/>
        <path id="Trazado_299" data-name="Trazado 299" d="M107.122,172.849q-2.662.293-5.089.62a27.342,27.342,0,0,1-4.9.235,45.448,45.448,0,0,1-10.608-1.235,89.172,89.172,0,0,1-10.321-3.136,77.918,77.918,0,0,1-8.46-3.71,76.565,76.565,0,0,1-7.9-4.658,42.857,42.857,0,0,1-5.99-4.9,21.913,21.913,0,0,1-4.468-6.329,27.718,27.718,0,0,1-2.763-10.223,41.423,41.423,0,0,1,.523-11.079,36.13,36.13,0,0,1,3.279-9.9,18.615,18.615,0,0,1,5.428-6.754q1.137-.853,2.28-1.666a18.892,18.892,0,0,1,2.475-1.47,18.286,18.286,0,0,1,6.794-2.188,29.667,29.667,0,0,1,7.093.092,29.579,29.579,0,0,1,8.558,2.188q4,1.714,7.989,3.71a40.227,40.227,0,0,1,6.278,3.8q2.946,2.2,5.8,4.474a6.06,6.06,0,0,1,.953,1.332,3.655,3.655,0,0,0,1.241,1.332c0-.448.011-1.332.046-2.665s.057-2.728.092-4.187.063-2.82.1-4.089.046-2.091.046-2.47q.379-5.333.81-9.706t.9-9.7q.379-4,.856-8.041c.322-2.688.632-5.37.953-8.035.19-1.522.379-3.055.574-4.612s.345-3.09.471-4.618c.063-.626.109-1.264.144-1.9a12.392,12.392,0,0,0-.052-1.9,5.644,5.644,0,0,1,.666-3.09,7.175,7.175,0,0,1,2.05-2.332,6.738,6.738,0,0,1,2.849-1.235,6.881,6.881,0,0,1,3.193.19,4.148,4.148,0,0,1,2.28,1.62,11.414,11.414,0,0,1,1.235,2.47,15.556,15.556,0,0,1,1.051,6.944q-.293,2.852-.574,5.755t-.477,5.755q-.284,4.092-.523,8.179t-.425,8.184c-.069,1.2-.115,2.866-.149,4.991s-.057,4.486-.092,7.087-.063,5.3-.1,8.087-.046,5.485-.046,8.081-.011,4.968-.046,7.087-.046,3.791-.046,5q0,3.8.046,7.6c.034,2.539.109,5.106.241,7.708q.181,4.755.471,9.413t.569,9.419c.132,1.9.27,3.808.431,5.709s.264,3.837.333,5.8q.095,2.567-.052,5.186c-.092,1.746-.138,3.469-.138,5.181a4.607,4.607,0,0,1-.81,2.567,8.133,8.133,0,0,1-2.045,2.142,6.693,6.693,0,0,1-2.665,1.189,4.545,4.545,0,0,1-2.757-.287,12.963,12.963,0,0,0-2.188-.758,4.283,4.283,0,0,1-2-1.143,7.975,7.975,0,0,1-1.378-1.8,4.668,4.668,0,0,1-.523-2.286q-.2-3.808-.425-7.61c-.167-2.533-.431-5.071-.81-7.61-.069-.316-.109-.62-.144-.9S107.185,173.171,107.122,172.849Zm-42.9-25.392a61.149,61.149,0,0,0,6.748,5.135,44.8,44.8,0,0,0,7.518,3.992q4.282,1.809,8.609,3.193T96,162.2q2.464.577,4.939.908t5.232.81c.063-1.4.132-2.918.19-4.566s.063-3.3,0-4.945a33.458,33.458,0,0,0-.517-4.807,15.791,15.791,0,0,0-1.384-4.233,62.722,62.722,0,0,0-4.612-7.179,30.182,30.182,0,0,0-4.187-4.566,26.241,26.241,0,0,0-3.946-2.854c-1.269-.729-2.539-1.407-3.8-2.045a40.281,40.281,0,0,0-8.368-3.188,42.889,42.889,0,0,0-8.845-1.281,9.691,9.691,0,0,0-8.092,3.423,17.9,17.9,0,0,0-2.757,6.467,15.563,15.563,0,0,0-.287,3.044,13.637,13.637,0,0,0,.431,3.331,13.933,13.933,0,0,0,1.424,3.469A15.111,15.111,0,0,0,64.224,147.458Z" transform="translate(179.556 -53.378)" fill="#040404"/>
        <path id="Trazado_300" data-name="Trazado 300" d="M77.2,146c.19,1.654.345,3.2.477,4.664q.189,1.9.287,3.613a8.507,8.507,0,0,1-.1,2.378,5.571,5.571,0,0,1-1.522,2.763,3.522,3.522,0,0,1-2.854.758,7.047,7.047,0,0,1-4.331-2.045,15.084,15.084,0,0,1-2.613-3.854,10.368,10.368,0,0,1-1.045-2.757c-.19-.821-.385-1.614-.569-2.378s-.35-1.551-.477-2.378q-.482-5.04-1-9.988t-.9-9.988q-.388-4.471-.718-8.845T61.6,109q.095-2.567.046-5.135T61.6,98.732c.063-1.08.115-2.142.138-3.188s.08-2.108.149-3.188c0-1.08-.017-2.125-.052-3.142s-.017-2.056.052-3.136a19.816,19.816,0,0,1,.569-3.808,5.025,5.025,0,0,1,2.711-3.377,4.477,4.477,0,0,1,4.233-.046,4.191,4.191,0,0,1,1.287,1c.35.414.678.839,1,1.287a10.887,10.887,0,0,1,1.281,2.757q.422,1.43.81,2.946a52.929,52.929,0,0,1,1.189,7.185A61,61,0,0,1,75.2,101.2q-.095,2.473-.046,4.807t.046,4.8h.1c.126,1.9.19,3.791.19,5.657s.063,3.756.19,5.663L77.1,142.106c.063.695.1,1.344.1,1.947ZM69.873,71.623A4.187,4.187,0,0,1,68.546,72a3.282,3.282,0,0,1-1.476-.144,2.84,2.84,0,0,1-1.327-1.045,5.614,5.614,0,0,1-.907-2.429,5,5,0,0,1,.144-2.705,5.741,5.741,0,0,1,2.992-3.285c.2-.126.62-.063,1.287.19s1.344.54,2.045.856a4.524,4.524,0,0,1,2.045,2.188,7.923,7.923,0,0,1,1,3.044,1.5,1.5,0,0,1-.425,1.1,5.035,5.035,0,0,1-1.143.8,8.047,8.047,0,0,1-1.476.62C70.8,71.353,70.321,71.491,69.873,71.623Z" transform="translate(251.231 -17.207)" fill="#040404"/>
        <path id="Trazado_301" data-name="Trazado 301" d="M85.24,191.738A11.158,11.158,0,0,1,81,195.729a12.576,12.576,0,0,1-4.325,1.332,11.615,11.615,0,0,1-4.664-.379,18.2,18.2,0,0,1-2.188-3.613,20.234,20.234,0,0,1-1.327-4.1,84.715,84.715,0,0,1-1.574-10.935q-.431-5.514-.615-11.039-.2-5.135-.431-10.126t-.235-10.131q0-7.039.092-14.031t.19-14.123q.095-6.565.046-13.083c-.029-4.336.017-8.7.149-13.072q.086-5.617.327-11.131t.425-11.228c.069-1.832.2-3.641.385-5.416a19.2,19.2,0,0,1,1.332-5.238A15.993,15.993,0,0,1,70.4,55.809a2.468,2.468,0,0,1,1.189-1.045,4.207,4.207,0,0,1,1.568-.281,5.54,5.54,0,0,1,3.71,1.045,9.422,9.422,0,0,1,2.567,3.044,29.3,29.3,0,0,1,2.9,8.793,78.433,78.433,0,0,1,.9,9.276q.2,4.48.287,8.851t.092,8.845q.095,6.556.1,13.078t-.19,13.078q0,4.376-.19,8.7t-.379,8.707q-.095,4.187-.144,8.225t-.046,8.133c0,1.964.029,3.9.1,5.8s.121,3.842.184,5.807c0,1.459.034,2.946.092,4.468s.1,3.044.1,4.566c.069,1.459.08,2.9.052,4.331s-.052,2.9-.052,4.422c.253-.316.477-.62.666-.9s.419-.586.672-.907c.569-.569,1.12-1.143,1.666-1.712a16.86,16.86,0,0,1,1.752-1.62,1.909,1.909,0,0,1,2.567.1,1.073,1.073,0,0,1,.574,1.045,10.134,10.134,0,0,1-.287,1.235,34.958,34.958,0,0,1-2.516,5.565Q86.848,189.073,85.24,191.738Z" transform="translate(270.497 -54.474)" fill="#040404"/>
        <path id="Trazado_302" data-name="Trazado 302" d="M91.035,191.738a11.158,11.158,0,0,1-4.239,3.992,12.565,12.565,0,0,1-4.331,1.332,11.6,11.6,0,0,1-4.658-.379,18.2,18.2,0,0,1-2.188-3.613,19.879,19.879,0,0,1-1.327-4.1A84.7,84.7,0,0,1,72.72,178.04q-.431-5.514-.615-11.039-.2-5.135-.431-10.126t-.235-10.131q0-7.039.092-14.031t.19-14.123q.095-6.565.046-13.083c-.029-4.336.017-8.7.149-13.072Q72,86.817,72.243,81.3c.155-3.682.3-7.42.425-11.228.069-1.832.2-3.641.385-5.416a19.2,19.2,0,0,1,1.332-5.238,15.991,15.991,0,0,1,1.809-3.613,2.468,2.468,0,0,1,1.189-1.045,4.186,4.186,0,0,1,1.568-.281,5.54,5.54,0,0,1,3.71,1.045,9.422,9.422,0,0,1,2.567,3.044,29.3,29.3,0,0,1,2.9,8.793,78.419,78.419,0,0,1,.9,9.276q.19,4.48.287,8.851t.092,8.845q.095,6.556.1,13.078t-.189,13.078q0,4.376-.19,8.7T88.75,137.9c-.069,2.791-.109,5.531-.144,8.225s-.046,5.41-.046,8.133c0,1.964.029,3.9.1,5.8s.121,3.842.184,5.807c0,1.459.034,2.946.092,4.468s.1,3.044.1,4.566c.069,1.459.08,2.9.052,4.331s-.052,2.9-.052,4.422c.253-.316.477-.62.666-.9s.414-.586.666-.907c.574-.569,1.126-1.143,1.666-1.712a17.525,17.525,0,0,1,1.757-1.62,1.909,1.909,0,0,1,2.567.1,1.073,1.073,0,0,1,.574,1.045,10.144,10.144,0,0,1-.287,1.235,34.96,34.96,0,0,1-2.516,5.565Q92.644,189.073,91.035,191.738Z" transform="translate(297.99 -54.474)" fill="#040404"/>
        <path id="Trazado_303" data-name="Trazado 303" d="M143.267,159.609a4.913,4.913,0,0,1-2.1-.287,6.819,6.819,0,0,1-3.7-2.378,33.823,33.823,0,0,1-4.376-8.655q-1.525-4.566-2.665-9.419-.663-2.946-1.143-5.9t-.758-5.99c-.322-3.044-.649-6.042-1-8.988s-.683-5.944-1-8.988c-.063-.821-.109-1.648-.144-2.475s-.109-1.712-.235-2.659c-.574.695-1.063,1.344-1.476,1.947a8.584,8.584,0,0,0-1,1.953,81.894,81.894,0,0,1-3.946,8.891q-2.24,4.333-4.514,8.707a30.067,30.067,0,0,0-1.815,3.658,30.447,30.447,0,0,1-1.8,3.664,29.077,29.077,0,0,1-1.614,2.521c-.574.793-1.149,1.568-1.712,2.326a56.8,56.8,0,0,1-4.382,4.807A19.158,19.158,0,0,1,98.56,146a17.932,17.932,0,0,1-10.085,2,8.287,8.287,0,0,1-4.319-1.522,14.172,14.172,0,0,1-3.291-3.331,13.926,13.926,0,0,1-2.228-4.279,25.689,25.689,0,0,1-1-4.756,38.2,38.2,0,0,1-.241-9.08,83.73,83.73,0,0,1,1.378-9.086q.767-3.325,1.666-6.519a31.335,31.335,0,0,1,2.527-6.226,48.54,48.54,0,0,1,9.695-12.842,76.925,76.925,0,0,1,7.518-6.278,53.7,53.7,0,0,1,8.46-5.043,66.451,66.451,0,0,1,18.643-5.8.979.979,0,0,0,.477-.1.944.944,0,0,1,.385-.092q.758-2.378,1.424-4.52T131,64.205a2.152,2.152,0,0,1,1.189-1.476,3.862,3.862,0,0,1,2.234-.241,4.5,4.5,0,0,1,3.567,1.953,7.832,7.832,0,0,1,1.378,3.377,15.931,15.931,0,0,1,.327,4.474c-.086,1.516-.2,3.01-.327,4.468q-.284,5.608-.477,11.177a94.39,94.39,0,0,0,.287,11.171q.569,7.047,1.666,13.842t2.613,13.652q.853,4.092,1.907,8.133t2.091,8.035c.373,1.522.81,3.015,1.287,4.474s.965,2.946,1.47,4.468c.063.253.161.7.281,1.332a3.239,3.239,0,0,1-.281,2.142,9.071,9.071,0,0,1-1.43,1.758,5.806,5.806,0,0,1-1.666,1.189c-.6.287-1.189.551-1.752.81C144.662,159.2,143.967,159.413,143.267,159.609Zm-45.66-23.4h.477a3.694,3.694,0,0,0,.861-.379,21.737,21.737,0,0,0,8.271-8.655q.861-1.611,1.574-3.234c.477-1.074.994-2.154,1.568-3.234q1.62-3.041,3.475-5.9a28.347,28.347,0,0,0,2.992-6.18,49.35,49.35,0,0,1,2.188-5.043q1.232-2.473,2.28-4.945,1.335-3.239,2.665-6.473a61.593,61.593,0,0,0,2.286-6.559c.189-.7.345-1.4.477-2.091a5.777,5.777,0,0,0-.1-2.286,11.405,11.405,0,0,0-1.953.523,12.774,12.774,0,0,0-1.757.81q-3.429,1.714-6.7,3.613a64.833,64.833,0,0,0-6.329,4.187q-2.473,1.9-4.658,3.946a16.363,16.363,0,0,0-3.527,4.8c-.373.827-.775,1.637-1.189,2.429a24.652,24.652,0,0,0-1.091,2.424c-.505,1.332-1,2.682-1.47,4.043a38.378,38.378,0,0,0-1.189,4.135,22.826,22.826,0,0,0-.666,3.664c-.132,1.235-.253,2.493-.385,3.756a46.031,46.031,0,0,0-.327,6.278,38.1,38.1,0,0,0,.615,6.278,18.423,18.423,0,0,0,.523,2.142A5.184,5.184,0,0,0,97.607,136.2Z" transform="translate(325.465 -16.733)" fill="#040404"/>
        <path id="Trazado_304" data-name="Trazado 304" d="M95.511,119.567a48.07,48.07,0,0,1,4.141,4.285,11.149,11.149,0,0,1,2.424,5.324,48.81,48.81,0,0,0,1.235,5.376,17.24,17.24,0,0,0,2.383,4.991,19.088,19.088,0,0,0,2.183,2.521c.764.729,1.585,1.447,2.475,2.142a5.636,5.636,0,0,0,2.475,1.091,10.365,10.365,0,0,0,2.665.144,4.359,4.359,0,0,0,1.9-.758,18.745,18.745,0,0,0,2.091-2.28,8.677,8.677,0,0,0,1.424-2.86,37.033,37.033,0,0,0,1.528-8.937,27.952,27.952,0,0,0-1.149-9.034A25.921,25.921,0,0,0,119.2,116.2a52.021,52.021,0,0,0-2.952-4.9q-1.9-2.662-3.756-5.232t-3.469-5.324q-2-3.334-3.664-6.754a37.12,37.12,0,0,1-2.613-7.231,19.659,19.659,0,0,1-.477-5.8,21.349,21.349,0,0,1,1.189-5.755,19.9,19.9,0,0,1,2.757-5.186,17.932,17.932,0,0,1,4.239-4.089c.505-.316,1.005-.632,1.516-.948s1.017-.638,1.522-.953a11.968,11.968,0,0,1,4.71-1.666,14.457,14.457,0,0,1,4.951.19,18.192,18.192,0,0,1,4.606,1.666,17.036,17.036,0,0,1,3.808,2.665,53.125,53.125,0,0,1,6.186,7.225,17.194,17.194,0,0,1,1.757,3q.706,1.568,1.476,3.188c.316.7.6,1.361.85,2s.54,1.3.861,1.993a2.412,2.412,0,0,1-.385,2.573,2.616,2.616,0,0,1-.666.758,1.144,1.144,0,0,1-1.04.1,1.379,1.379,0,0,1-1.43-1.43c-.126-.569-.235-1.143-.333-1.712a9.049,9.049,0,0,0-.425-1.62,25.751,25.751,0,0,0-3.142-5.611,18.022,18.022,0,0,0-4.664-4.371,9.235,9.235,0,0,0-2.567-1.189q-1.421-.431-2.757-.81a3.526,3.526,0,0,0-1.712.046,3.129,3.129,0,0,0-1.522,1,20.842,20.842,0,0,0-2.952,4.422,13.634,13.634,0,0,0-1.327,5.089,6.854,6.854,0,0,0,.281,2.567,11.859,11.859,0,0,0,.953,2.286,76.546,76.546,0,0,0,4.141,7.277c1.482,2.315,3.027,4.612,4.606,6.892q1.9,2.567,3.618,5.232c1.137,1.78,2.217,3.613,3.234,5.519a38.428,38.428,0,0,1,4.566,16.265,64.075,64.075,0,0,1-.235,8.891,43.591,43.591,0,0,1-1.763,8.609,23.507,23.507,0,0,1-4.227,8.707,19.473,19.473,0,0,1-7.857,5.755,12.486,12.486,0,0,1-4.181.948,31.535,31.535,0,0,1-4.279-.1,24.872,24.872,0,0,1-12.176-4.279,30.182,30.182,0,0,1-3.854-3.325q-1.757-1.809-3.377-3.71a29.786,29.786,0,0,1-5.416-11.223,14.685,14.685,0,0,1-.437-5.094,25.216,25.216,0,0,1,1.005-4.991,39.9,39.9,0,0,1,1.522-4.043Q94.75,121.761,95.511,119.567Z" transform="translate(392.243 -17.693)" fill="#040404"/>
      </g>
    </g>
  </g>
</svg>

